<svg width="147" height="62" viewBox="0 0 147 62" fill="none" xmlns="http://www.w3.org/2000/svg">
<path fill-rule="evenodd" clip-rule="evenodd" d="M34.4915 62L66.3918 34.8975C68.6214 32.9787 69.9934 31.06 77.0252 31.06C86.8011 31.06 99.4926 29.501 110.126 27.8221C124.876 25.5435 137.224 21.2263 147 17.8685C144.256 21.5861 125.562 25.4236 116.129 28.9014C124.361 27.4623 125.905 27.1025 133.965 25.1838C127.963 29.0213 120.931 28.6615 111.155 32.0193C118.358 30.94 118.701 30.94 125.733 29.381C121.445 32.619 113.213 32.1393 106.867 34.6576C113.385 33.9381 112.87 34.1779 118.873 32.9787C114.585 34.8975 107.382 38.0155 94.0044 41.853L68.6214 45.9304C66.7348 46.1702 62.1041 46.53 58.1595 49.1683C53.1858 52.646 46.3255 56.7234 44.2674 57.6828C41.8663 59.0019 39.1222 61.2805 34.4915 62ZM32.4334 60.9207L61.4181 34.7776C63.6477 32.7389 64.1622 30.1006 58.5025 28.6615C50.7847 26.6228 42.3808 26.1431 34.8345 23.9845C19.2274 19.7872 10.1375 9.71373 0.876161 0C-2.21096 4.19729 9.4515 9.47389 12.1956 14.8704C7.73643 11.7524 3.62027 8.51451 0.0186263 4.91683C-0.495894 9.83366 9.79452 12.9516 12.8816 18.3482C8.59397 15.7099 4.4778 13.0716 1.04767 10.1934C-0.152881 14.2708 12.0241 18.1083 13.5677 21.8259C9.4515 19.9072 5.50685 17.7485 2.59123 15.3501C3.27726 18.1083 7.39342 21.9458 15.7973 26.6228C23.8581 31.8994 37.0641 38.4952 37.4071 47.4894C37.4071 50.2476 35.6921 52.4062 33.8055 54.8046C32.6049 56.3636 31.7474 58.5222 32.4334 60.9207Z" fill="#949599"/>
</svg>
